<?xml version="1.0" encoding="UTF-8"?>
<svg version="1.1" xmlns="http://www.w3.org/2000/svg" width="500" height="500">
<path d="M0 0 C10.085625 -0.061875 20.17125 -0.12375 30.5625 -0.1875 C35.29122437 -0.22846802 35.29122437 -0.22846802 40.11547852 -0.27026367 C42.66161722 -0.27903937 45.20776019 -0.28668073 47.75390625 -0.29296875 C49.03744995 -0.30831665 50.32099365 -0.32366455 51.64343262 -0.33947754 C63.28430867 -0.34278179 75.13615325 0.82933783 85.5625 6.375 C87.20412109 7.22191406 87.20412109 7.22191406 88.87890625 8.0859375 C98.34790791 13.89295979 104.44006143 22.29493725 107.51171875 32.9609375 C110.59177433 45.8232496 109.92493349 61.30726201 103.36328125 73.0625 C98.25002311 80.32948005 91.92418559 87.27275536 83.875 91.25 C83.21242188 91.58515625 82.54984375 91.9203125 81.8671875 92.265625 C80 93 80 93 77 93 C77.54527344 93.66644531 78.09054687 94.33289063 78.65234375 95.01953125 C79.40644531 95.94121094 80.16054688 96.86289063 80.9375 97.8125 C82.17693359 99.32650391 82.17693359 99.32650391 83.44140625 100.87109375 C85.03554834 102.81922299 86.62632369 104.76992525 88.21484375 106.72265625 C91.43216467 110.67303764 94.65611056 114.61226175 97.9765625 118.4765625 C98.72993896 119.35562256 98.72993896 119.35562256 99.49853516 120.25244141 C100.48120625 121.39617469 101.46772145 122.53661915 102.45849609 123.67333984 C104.55750403 126.11751461 105.96985101 127.90955303 107 131 C106.29875 131.15855469 105.5975 131.31710937 104.875 131.48046875 C95.55087502 133.77349405 88.5791121 136.87043665 83 145 C81.81594604 147.64024935 80.9032913 150.24258445 80 153 C75.90505618 149.06430399 72.30974583 144.85907903 68.75 140.4375 C68.17499756 139.7264209 67.59999512 139.0153418 67.00756836 138.28271484 C63.05166093 133.36701166 59.22272251 128.37173103 55.47265625 123.296875 C51.61655006 118.11136175 47.59856769 113.04728268 43.60766602 107.96533203 C43.02557373 107.22138184 42.44348145 106.47743164 41.84375 105.7109375 C41.31974609 105.04368652 40.79574219 104.37643555 40.25585938 103.68896484 C39 102 39 102 38 100 C37.67 119.47 37.34 138.94 37 159 C24.79 159 12.58 159 0 159 C0 138.21 0 117.42 0 96 C-16.5 96 -33 96 -50 96 C-50 116.79 -50 137.58 -50 159 C-62.21 159 -74.42 159 -87 159 C-87 122.37 -87 85.74 -87 48 C-83.37 47.01 -79.74 46.02 -76 45 C-66.17410502 40.70337209 -59.43970748 35.1064975 -53.515625 26.20703125 C-52 24 -52 24 -50 22 C-50 35.53 -50 49.06 -50 63 C-33.5 63 -17 63 0 63 C0 42.21 0 21.42 0 0 Z M37 30 C37 43.2 37 56.4 37 70 C52.50493826 70.89933378 52.50493826 70.89933378 64.8125 64.8125 C68.74638326 59.7546501 70.58463875 54.44608843 70.28125 48.01171875 C69.54457237 42.74242737 68.02144889 39.09440952 64.375 35.1875 C55.79812587 29.01048116 47.81391599 30 37 30 Z " fill="#FEFEFE" transform="translate(234,136)"/>
<path d="M0 0 C2.80360336 2.45315294 4.60739685 4.25586918 5.44140625 7.9609375 C5.74126959 13.01024926 4.33182737 16.11286807 1 20 C-1.98768323 22.34746539 -5.2192819 22.42133539 -8.96875 22.31640625 C-12.39601982 21.78254307 -14.43838621 20.25665977 -17 18 C-19.10863429 14.35781349 -19.50962203 11.16191328 -19 7 C-17.0732215 3.06937186 -15.48749851 1.29999908 -11.75 -1 C-7.16632069 -2.22231448 -4.25303959 -2.0909295 0 0 Z " fill="#FDFDFD" transform="translate(347,284)"/>
</svg>
